<?xml version="1.0" encoding="UTF-8" standalone="no"?>
<!-- Created with Inkscape (http://www.inkscape.org/) -->

<svg
   xmlns:dc="http://purl.org/dc/elements/1.1/"
   xmlns:cc="http://creativecommons.org/ns#"
   xmlns:rdf="http://www.w3.org/1999/02/22-rdf-syntax-ns#"
   xmlns:svg="http://www.w3.org/2000/svg"
   xmlns="http://www.w3.org/2000/svg"
   xmlns:sodipodi="http://sodipodi.sourceforge.net/DTD/sodipodi-0.dtd"
   xmlns:inkscape="http://www.inkscape.org/namespaces/inkscape"
   width="364.25"
   height="147.125"
   id="svg3118"
   version="1.1"
   inkscape:version="0.48.0 r9654"
   sodipodi:docname="New document 6">
  <defs
     id="defs3120" />
  <sodipodi:namedview
     id="base"
     pagecolor="#ffffff"
     bordercolor="#666666"
     borderopacity="1.0"
     inkscape:pageopacity="0.0"
     inkscape:pageshadow="2"
     inkscape:zoom="0.35"
     inkscape:cx="322.83929"
     inkscape:cy="-46.42914"
     inkscape:document-units="px"
     inkscape:current-layer="layer1"
     showgrid="false"
     fit-margin-top="0"
     fit-margin-left="0"
     fit-margin-right="0"
     fit-margin-bottom="0"
     inkscape:window-width="1920"
     inkscape:window-height="1003"
     inkscape:window-x="0"
     inkscape:window-y="25"
     inkscape:window-maximized="1" />
  <metadata
     id="metadata3123">
    <rdf:RDF>
      <cc:Work
         rdf:about="">
        <dc:format>image/svg+xml</dc:format>
        <dc:type
           rdf:resource="http://purl.org/dc/dcmitype/StillImage" />
        <dc:title></dc:title>
      </cc:Work>
    </rdf:RDF>
  </metadata>
  <g
     inkscape:label="Layer 1"
     inkscape:groupmode="layer"
     id="layer1"
     transform="translate(-52.160714,-338.80804)">
    <g
       transform="translate(-75.714286,-4.2857074)"
       id="g3056">
      <path
         inkscape:connector-curvature="0"
         style="fill:#ff0000;fill-opacity:1;fill-rule:evenodd;stroke:#c1c1c1;stroke-width:1.47360277;stroke-miterlimit:4;stroke-opacity:1;stroke-dasharray:35.36646767, 1.47360282;stroke-dashoffset:0"
         d="m 128.60823,343.82755 362.78354,0 0,145.64068 -362.78354,0 z"
         id="rect3054" />
      <g
         style="font-size:144px;font-style:normal;font-variant:normal;font-weight:normal;font-stretch:normal;line-height:125%;letter-spacing:0px;word-spacing:0px;fill:#ffffff;fill-opacity:1;stroke:none;font-family:Umpush;-inkscape-font-specification:Umpush"
         id="text3050">
        <path
           inkscape:connector-curvature="0"
           d="m 174.4,365.55989 -2.736,0 c -7.34399,0 -9.216,1.008 -9.216,3.024 0,0.288 0,0.864 0.144,1.44 3.888,14.25598 8.064,29.95201 11.952,44.208 5.32799,20.15998 11.08801,41.04002 16.56,61.2 8.63999,0 10.8,-0.288 11.952,-2.448 0.144,-0.72 0.144,-1.296 0.144,-1.872 0,-2.736 -0.576,-5.76001 -1.584,-9.504 -4.176,-15.98399 -8.64,-31.82402 -12.96,-47.808 -4.176,-15.83999 -8.496,-31.82402 -12.816,-47.664 l -1.44,-0.576"
           style="fill:#ffffff;font-family:Qlassik Bold;-inkscape-font-specification:Qlassik Bold"
           id="path3090" />
        <path
           inkscape:connector-curvature="0"
           d="m 259.783,402.99989 c -0.72,-1.872 -7.63201,-6.192 -16.704,-6.192 -7.19999,0 -14.68801,1.728 -20.448,7.056 -5.75999,5.32799 -10.8,14.83201 -10.8,29.952 0,28.94397 13.82402,34.848 29.808,34.848 5.61599,0 10.512,-1.296 13.392,-3.312 2.016,-1.584 3.6,-4.032 3.744,-6.192 0,-1.008 -0.576,-3.312 -1.296,-5.472 -3.744,1.872 -8.784,3.456 -13.248,3.456 -8.49599,0 -16.704,-4.17602 -16.704,-24.048 0,-16.55999 5.90401,-24.048 14.256,-24.768 0.72,-0.144 1.152,-0.144 1.584,-0.144 2.448,0 5.328,0.72 7.632,1.728 1.728,0.576 3.312,1.008 4.752,1.008 l 1.728,0 c 1.44,-2.448 2.304,-5.904 2.304,-7.776 l 0,-0.144"
           style="fill:#ffffff;font-family:Qlassik Bold;-inkscape-font-specification:Qlassik Bold"
           id="path3092" />
        <path
           inkscape:connector-curvature="0"
           d="m 323.5615,432.08789 c 0,-23.18398 -9.50402,-35.28 -28.368,-35.28 -17.13598,0 -29.232,11.37602 -29.232,36.144 0,25.19997 10.36802,35.712 28.8,35.712 16.55998,0 28.8,-12.38403 28.8,-36.576 m -41.616,0.288 c 0,-17.85598 6.04801,-24.624 12.816,-24.624 7.91999,0 12.96,6.76802 12.96,24.768 0,19.00798 -5.90401,25.488 -12.672,25.488 -7.48799,0 -13.104,-6.48002 -13.104,-25.632"
           style="fill:#ffffff;font-family:Qlassik Bold;-inkscape-font-specification:Qlassik Bold"
           id="path3094" />
        <path
           inkscape:connector-curvature="0"
           d="m 385.9315,452.53589 c 0,-2.592 0.144,-9.216 0.144,-12.384 0,-5.328 0,-10.80001 0,-16.128 l 0,-47.664 c 0,-6.48 -0.288,-9.072 -1.296,-11.52 -7.34399,0 -12.24,0.72 -13.968,4.608 0.144,3.31199 0.288,7.488 0.288,13.68 l 0,15.264 c -2.448,-1.008 -5.328,-1.584 -9.648,-1.584 -7.19999,0 -14.54401,2.88 -19.872,8.784 -5.90399,6.62399 -9.792,16.56001 -9.792,29.376 0,24.76797 10.94401,32.832 25.92,33.552 4.032,0.144 7.776,-0.432 10.944,-2.16 l 0,0.144 c 1.44,-0.72 2.592,-1.584 3.456,-2.304 1.872,2.016 5.04,4.464 8.64,4.176 4.32,-0.144 7.488,-2.016 8.928,-4.032 0,-0.72 0.144,-4.32 0.288,-6.336 -4.464,1.008 -4.032,-5.472 -4.032,-5.472 m -14.832,-7.776 c 0,3.024 0,5.184 -0.144,6.768 0,0.72 -0.144,1.584 -0.288,1.728 l 0.144,-0.144 c -1.872,2.304 -5.472,3.744 -9.216,3.744 -7.77599,0 -13.68,-5.61602 -13.68,-23.328 0,-18.86398 7.92001,-25.776 15.552,-25.776 2.88,0 5.76,0.864 7.632,2.16 l 0,34.848"
           style="fill:#ffffff;font-family:Qlassik Bold;-inkscape-font-specification:Qlassik Bold"
           id="path3096" />
        <path
           inkscape:connector-curvature="0"
           d="m 429.253,456.56789 c -8.92799,0 -14.976,-4.60802 -15.264,-19.008 2.304,0.144 2.736,0 5.04,0 6.76799,0 14.112,-0.288 18.576,-0.864 4.176,-0.576 9.504,-2.448 11.232,-3.888 0.432,-2.16 0.72,-5.328 0.72,-8.496 0,-2.448 -0.144,-4.752 -0.288,-6.912 -1.152,-12.52799 -8.20801,-20.592 -21.888,-20.592 -16.55998,0 -28.656,10.36803 -28.656,38.304 0,11.80799 2.59201,20.88 7.92,26.352 5.75999,5.75999 13.10401,7.056 20.304,7.056 4.608,0 9.072,-0.864 11.232,-1.44 l -0.144,0 c 4.464,-1.152 9.216,-4.464 9.36,-7.488 -0.144,-1.584 -0.576,-4.464 -1.44,-7.2 -5.61599,3.024 -11.08801,4.176 -16.704,4.176 m -3.312,-49.104 c 5.47199,0 8.064,3.74401 8.784,11.376 l 0,1.44 c 0,0.576 0.144,1.008 0.144,1.584 0,1.728 -0.288,3.312 -0.576,4.32 -0.72,0.432 -1.44,0.432 -2.16,0.576 -2.88,0.288 -8.78401,0.432 -13.824,0.432 l -4.032,0 c 0.864,-12.95999 5.90401,-19.008 11.088,-19.728 l 0.576,0"
           style="fill:#ffffff;font-family:Qlassik Bold;-inkscape-font-specification:Qlassik Bold"
           id="path3098" />
      </g>
    </g>
  </g>
</svg>
